<svg width="279" height="276" viewBox="0 0 279 276" fill="none" xmlns="http://www.w3.org/2000/svg">
<g filter="url(#filter0_ddiiii)">
<path d="M139.5 174C170.152 174 195 149.823 195 120C195 90.1766 170.152 66 139.5 66C108.848 66 84 90.1766 84 120C84 149.823 108.848 174 139.5 174Z" fill="url(#paint0_radial)"/>
<path d="M139.5 174C170.152 174 195 149.823 195 120C195 90.1766 170.152 66 139.5 66C108.848 66 84 90.1766 84 120C84 149.823 108.848 174 139.5 174Z" fill="url(#paint1_radial)" fill-opacity="0.4"/>
<path d="M139.5 174C170.152 174 195 149.823 195 120C195 90.1766 170.152 66 139.5 66C108.848 66 84 90.1766 84 120C84 149.823 108.848 174 139.5 174Z" fill="url(#paint2_radial)" fill-opacity="0.4"/>
</g>
<g filter="url(#filter1_ii)">
<path d="M174.968 136.56C175.963 134.313 176.389 132.789 176.404 132.729C176.818 131.127 175.819 129.504 174.169 129.099C172.516 128.691 170.848 129.663 170.423 131.268C170.195 132.153 164.416 153 139.5 153C114.584 153 108.805 132.153 108.574 131.265C108.149 129.663 106.481 128.691 104.828 129.096C103.181 129.501 102.182 131.124 102.592 132.726C102.66 132.99 109.687 159 139.5 159C144.587 159 148.966 158.202 152.805 156.945C166.155 152.571 172.458 142.215 174.968 136.56Z" fill="#9F5600"/>
<path d="M174.968 136.56C175.963 134.313 176.389 132.789 176.404 132.729C176.818 131.127 175.819 129.504 174.169 129.099C172.516 128.691 170.848 129.663 170.423 131.268C170.195 132.153 164.416 153 139.5 153C114.584 153 108.805 132.153 108.574 131.265C108.149 129.663 106.481 128.691 104.828 129.096C103.181 129.501 102.182 131.124 102.592 132.726C102.66 132.99 109.687 159 139.5 159C144.587 159 148.966 158.202 152.805 156.945C166.155 152.571 172.458 142.215 174.968 136.56Z" fill="url(#paint3_radial)" fill-opacity="0.5"/>
</g>
<path d="M175.425 136.763L175.425 136.763L176.404 132.729L176.889 132.854C176.889 132.854 176.889 132.854 176.889 132.853C177.374 130.97 176.196 129.082 174.288 128.613C172.379 128.142 170.437 129.263 169.939 131.14L169.939 131.143C169.835 131.546 168.359 136.898 163.841 142.139C159.337 147.365 151.796 152.5 139.5 152.5C127.204 152.5 119.663 147.365 115.159 142.139C110.64 136.897 109.164 131.545 109.058 131.139L109.058 131.139L109.057 131.137C108.56 129.263 106.617 128.143 104.709 128.61L104.708 128.61C102.804 129.079 101.626 130.967 102.108 132.85L102.108 132.85C102.152 133.022 103.951 139.669 109.509 146.284C115.081 152.915 124.424 159.5 139.5 159.5C144.642 159.5 149.072 158.693 152.96 157.42L152.96 157.42C166.501 152.984 172.886 142.482 175.425 136.763Z" stroke="#FEC535"/>
<g filter="url(#filter2_dddiii)">
<path d="M183.922 146.043L174.807 136.89C174.807 136.89 172.711 135.576 170.882 138.594C168.477 142.56 164.484 147.399 158.752 151.107C156.344 152.664 152.157 154.674 150.437 155.061C148.17 155.568 149.24 157.953 149.24 157.953C151.044 157.572 152.481 157.05 152.481 157.05L153.393 157.938L161.799 166.116C167.127 171.3 177.215 172.116 183.382 166.116C189.549 160.116 189.253 151.23 183.922 146.043Z" fill="url(#paint4_linear)"/>
<path d="M183.922 146.043L174.807 136.89C174.807 136.89 172.711 135.576 170.882 138.594C168.477 142.56 164.484 147.399 158.752 151.107C156.344 152.664 152.157 154.674 150.437 155.061C148.17 155.568 149.24 157.953 149.24 157.953C151.044 157.572 152.481 157.05 152.481 157.05L153.393 157.938L161.799 166.116C167.127 171.3 177.215 172.116 183.382 166.116C189.549 160.116 189.253 151.23 183.922 146.043Z" fill="url(#paint5_radial)" fill-opacity="0.8"/>
<path d="M183.922 146.043L174.807 136.89C174.807 136.89 172.711 135.576 170.882 138.594C168.477 142.56 164.484 147.399 158.752 151.107C156.344 152.664 152.157 154.674 150.437 155.061C148.17 155.568 149.24 157.953 149.24 157.953C151.044 157.572 152.481 157.05 152.481 157.05L153.393 157.938L161.799 166.116C167.127 171.3 177.215 172.116 183.382 166.116C189.549 160.116 189.253 151.23 183.922 146.043Z" fill="url(#paint6_radial)" fill-opacity="0.8"/>
</g>
<path d="M176.238 159.222C176.895 158.583 176.895 157.548 176.238 156.909L165.048 146.022L162.594 148.266L173.858 159.225C174.514 159.861 175.581 159.861 176.238 159.222Z" fill="#DE3146"/>
<g filter="url(#filter3_ddii)">
<path d="M174.792 116.685C174.351 116.898 173.879 117 173.417 117C172.285 117 171.197 116.394 170.657 115.341C170.636 115.299 168.224 111 161.08 111C154.05 111 151.624 115.134 151.488 115.377C150.714 116.832 148.883 117.426 147.369 116.685C145.849 115.944 145.229 114.141 145.99 112.659C146.151 112.347 150.051 105 161.08 105C172.106 105 176.01 112.344 176.17 112.659C176.932 114.141 176.315 115.944 174.792 116.685Z" fill="#5A3A13"/>
<path d="M174.792 116.685C174.351 116.898 173.879 117 173.417 117C172.285 117 171.197 116.394 170.657 115.341C170.636 115.299 168.224 111 161.08 111C154.05 111 151.624 115.134 151.488 115.377C150.714 116.832 148.883 117.426 147.369 116.685C145.849 115.944 145.229 114.141 145.99 112.659C146.151 112.347 150.051 105 161.08 105C172.106 105 176.01 112.344 176.17 112.659C176.932 114.141 176.315 115.944 174.792 116.685Z" fill="url(#paint7_radial)" style="mix-blend-mode:soft-light"/>
</g>
<g filter="url(#filter4_ddii)">
<path d="M104.205 116.685C104.646 116.898 105.118 117 105.58 117C106.712 117 107.8 116.394 108.34 115.341C108.361 115.299 110.773 111 117.917 111C124.947 111 127.373 115.134 127.509 115.377C128.283 116.832 130.114 117.426 131.628 116.685C133.148 115.944 133.768 114.141 133.007 112.659C132.846 112.347 128.946 105 117.917 105C106.891 105 102.987 112.344 102.827 112.659C102.065 114.141 102.682 115.944 104.205 116.685Z" fill="#5A3A13"/>
<path d="M104.205 116.685C104.646 116.898 105.118 117 105.58 117C106.712 117 107.8 116.394 108.34 115.341C108.361 115.299 110.773 111 117.917 111C124.947 111 127.373 115.134 127.509 115.377C128.283 116.832 130.114 117.426 131.628 116.685C133.148 115.944 133.768 114.141 133.007 112.659C132.846 112.347 128.946 105 117.917 105C106.891 105 102.987 112.344 102.827 112.659C102.065 114.141 102.682 115.944 104.205 116.685Z" fill="url(#paint8_radial)" style="mix-blend-mode:soft-light"/>
</g>
<defs>
<filter id="filter0_ddiiii" x="0" y="0" width="279" height="276" filterUnits="userSpaceOnUse" color-interpolation-filters="sRGB">
<feFlood flood-opacity="0" result="BackgroundImageFix"/>
<feColorMatrix in="SourceAlpha" type="matrix" values="0 0 0 0 0 0 0 0 0 0 0 0 0 0 0 0 0 0 127 0" result="hardAlpha"/>
<feMorphology radius="4" operator="erode" in="SourceAlpha" result="effect1_dropShadow"/>
<feOffset dy="18"/>
<feGaussianBlur stdDeviation="44"/>
<feColorMatrix type="matrix" values="0 0 0 0 0.0941176 0 0 0 0 0.152941 0 0 0 0 0.294118 0 0 0 0.24 0"/>
<feBlend mode="normal" in2="BackgroundImageFix" result="effect1_dropShadow"/>
<feColorMatrix in="SourceAlpha" type="matrix" values="0 0 0 0 0 0 0 0 0 0 0 0 0 0 0 0 0 0 127 0" result="hardAlpha"/>
<feMorphology radius="6" operator="erode" in="SourceAlpha" result="effect2_dropShadow"/>
<feOffset dy="8"/>
<feGaussianBlur stdDeviation="14"/>
<feColorMatrix type="matrix" values="0 0 0 0 0.0941176 0 0 0 0 0.152941 0 0 0 0 0.294118 0 0 0 0.22 0"/>
<feBlend mode="normal" in2="effect1_dropShadow" result="effect2_dropShadow"/>
<feBlend mode="normal" in="SourceGraphic" in2="effect2_dropShadow" result="shape"/>
<feColorMatrix in="SourceAlpha" type="matrix" values="0 0 0 0 0 0 0 0 0 0 0 0 0 0 0 0 0 0 127 0" result="hardAlpha"/>
<feOffset dy="-10"/>
<feGaussianBlur stdDeviation="5"/>
<feComposite in2="hardAlpha" operator="arithmetic" k2="-1" k3="1"/>
<feColorMatrix type="matrix" values="0 0 0 0 0.741667 0 0 0 0 0.356 0 0 0 0 0 0 0 0 0.3 0"/>
<feBlend mode="normal" in2="shape" result="effect3_innerShadow"/>
<feColorMatrix in="SourceAlpha" type="matrix" values="0 0 0 0 0 0 0 0 0 0 0 0 0 0 0 0 0 0 127 0" result="hardAlpha"/>
<feOffset dy="-3"/>
<feGaussianBlur stdDeviation="1.5"/>
<feComposite in2="hardAlpha" operator="arithmetic" k2="-1" k3="1"/>
<feColorMatrix type="matrix" values="0 0 0 0 0.741176 0 0 0 0 0.356863 0 0 0 0 0 0 0 0 0.25 0"/>
<feBlend mode="normal" in2="effect3_innerShadow" result="effect4_innerShadow"/>
<feColorMatrix in="SourceAlpha" type="matrix" values="0 0 0 0 0 0 0 0 0 0 0 0 0 0 0 0 0 0 127 0" result="hardAlpha"/>
<feOffset/>
<feGaussianBlur stdDeviation="3"/>
<feComposite in2="hardAlpha" operator="arithmetic" k2="-1" k3="1"/>
<feColorMatrix type="matrix" values="0 0 0 0 0.776471 0 0 0 0 0.278431 0 0 0 0 0 0 0 0 0.75 0"/>
<feBlend mode="normal" in2="effect4_innerShadow" result="effect5_innerShadow"/>
<feColorMatrix in="SourceAlpha" type="matrix" values="0 0 0 0 0 0 0 0 0 0 0 0 0 0 0 0 0 0 127 0" result="hardAlpha"/>
<feOffset dy="-3"/>
<feGaussianBlur stdDeviation="1.5"/>
<feComposite in2="hardAlpha" operator="arithmetic" k2="-1" k3="1"/>
<feColorMatrix type="matrix" values="0 0 0 0 1 0 0 0 0 1 0 0 0 0 1 0 0 0 0.5 0"/>
<feBlend mode="normal" in2="effect5_innerShadow" result="effect6_innerShadow"/>
</filter>
<filter id="filter1_ii" x="101.5" y="128.004" width="75.9987" height="35.9957" filterUnits="userSpaceOnUse" color-interpolation-filters="sRGB">
<feFlood flood-opacity="0" result="BackgroundImageFix"/>
<feBlend mode="normal" in="SourceGraphic" in2="BackgroundImageFix" result="shape"/>
<feColorMatrix in="SourceAlpha" type="matrix" values="0 0 0 0 0 0 0 0 0 0 0 0 0 0 0 0 0 0 127 0" result="hardAlpha"/>
<feOffset dy="1"/>
<feGaussianBlur stdDeviation="1"/>
<feComposite in2="hardAlpha" operator="arithmetic" k2="-1" k3="1"/>
<feColorMatrix type="matrix" values="0 0 0 0 0 0 0 0 0 0 0 0 0 0 0 0 0 0 0.25 0"/>
<feBlend mode="normal" in2="shape" result="effect1_innerShadow"/>
<feColorMatrix in="SourceAlpha" type="matrix" values="0 0 0 0 0 0 0 0 0 0 0 0 0 0 0 0 0 0 127 0" result="hardAlpha"/>
<feOffset dy="4"/>
<feGaussianBlur stdDeviation="2"/>
<feComposite in2="hardAlpha" operator="arithmetic" k2="-1" k3="1"/>
<feColorMatrix type="matrix" values="0 0 0 0 0 0 0 0 0 0 0 0 0 0 0 0 0 0 0.15 0"/>
<feBlend mode="normal" in2="effect1_innerShadow" result="effect2_innerShadow"/>
</filter>
<filter id="filter2_dddiii" x="64.9879" y="70.6053" width="206.976" height="201.71" filterUnits="userSpaceOnUse" color-interpolation-filters="sRGB">
<feFlood flood-opacity="0" result="BackgroundImageFix"/>
<feColorMatrix in="SourceAlpha" type="matrix" values="0 0 0 0 0 0 0 0 0 0 0 0 0 0 0 0 0 0 127 0" result="hardAlpha"/>
<feMorphology radius="6" operator="erode" in="SourceAlpha" result="effect1_dropShadow"/>
<feOffset dx="2" dy="3"/>
<feGaussianBlur stdDeviation="2"/>
<feColorMatrix type="matrix" values="0 0 0 0 0.0941176 0 0 0 0 0.152941 0 0 0 0 0.294118 0 0 0 0.22 0"/>
<feBlend mode="multiply" in2="BackgroundImageFix" result="effect1_dropShadow"/>
<feColorMatrix in="SourceAlpha" type="matrix" values="0 0 0 0 0 0 0 0 0 0 0 0 0 0 0 0 0 0 127 0" result="hardAlpha"/>
<feMorphology radius="4" operator="erode" in="SourceAlpha" result="effect2_dropShadow"/>
<feOffset dy="18"/>
<feGaussianBlur stdDeviation="44"/>
<feColorMatrix type="matrix" values="0 0 0 0 0.0941176 0 0 0 0 0.152941 0 0 0 0 0.294118 0 0 0 0.24 0"/>
<feBlend mode="normal" in2="effect1_dropShadow" result="effect2_dropShadow"/>
<feColorMatrix in="SourceAlpha" type="matrix" values="0 0 0 0 0 0 0 0 0 0 0 0 0 0 0 0 0 0 127 0" result="hardAlpha"/>
<feMorphology radius="6" operator="erode" in="SourceAlpha" result="effect3_dropShadow"/>
<feOffset dy="8"/>
<feGaussianBlur stdDeviation="14"/>
<feColorMatrix type="matrix" values="0 0 0 0 0.0941176 0 0 0 0 0.152941 0 0 0 0 0.294118 0 0 0 0.22 0"/>
<feBlend mode="normal" in2="effect2_dropShadow" result="effect3_dropShadow"/>
<feBlend mode="normal" in="SourceGraphic" in2="effect3_dropShadow" result="shape"/>
<feColorMatrix in="SourceAlpha" type="matrix" values="0 0 0 0 0 0 0 0 0 0 0 0 0 0 0 0 0 0 127 0" result="hardAlpha"/>
<feOffset/>
<feGaussianBlur stdDeviation="1"/>
<feComposite in2="hardAlpha" operator="arithmetic" k2="-1" k3="1"/>
<feColorMatrix type="matrix" values="0 0 0 0 0.441667 0 0 0 0 0 0 0 0 0 0 0 0 0 1 0"/>
<feBlend mode="normal" in2="shape" result="effect4_innerShadow"/>
<feColorMatrix in="SourceAlpha" type="matrix" values="0 0 0 0 0 0 0 0 0 0 0 0 0 0 0 0 0 0 127 0" result="hardAlpha"/>
<feOffset dx="-1" dy="-3"/>
<feGaussianBlur stdDeviation="3.5"/>
<feComposite in2="hardAlpha" operator="arithmetic" k2="-1" k3="1"/>
<feColorMatrix type="matrix" values="0 0 0 0 1 0 0 0 0 1 0 0 0 0 1 0 0 0 0.4 0"/>
<feBlend mode="normal" in2="effect4_innerShadow" result="effect5_innerShadow"/>
<feColorMatrix in="SourceAlpha" type="matrix" values="0 0 0 0 0 0 0 0 0 0 0 0 0 0 0 0 0 0 127 0" result="hardAlpha"/>
<feOffset dx="2" dy="2"/>
<feGaussianBlur stdDeviation="2"/>
<feComposite in2="hardAlpha" operator="arithmetic" k2="-1" k3="1"/>
<feColorMatrix type="matrix" values="0 0 0 0 1 0 0 0 0 0.160784 0 0 0 0 0.160784 0 0 0 1 0"/>
<feBlend mode="normal" in2="effect5_innerShadow" result="effect6_innerShadow"/>
</filter>
<filter id="filter3_ddii" x="143.806" y="103.55" width="34.5491" height="16.0098" filterUnits="userSpaceOnUse" color-interpolation-filters="sRGB">
<feFlood flood-opacity="0" result="BackgroundImageFix"/>
<feColorMatrix in="SourceAlpha" type="matrix" values="0 0 0 0 0 0 0 0 0 0 0 0 0 0 0 0 0 0 127 0" result="hardAlpha"/>
<feOffset dy="0.696983"/>
<feGaussianBlur stdDeviation="0.929311"/>
<feColorMatrix type="matrix" values="0 0 0 0 0.520833 0 0 0 0 0.0740885 0 0 0 0 0.0455729 0 0 0 0.45 0"/>
<feBlend mode="normal" in2="BackgroundImageFix" result="effect1_dropShadow"/>
<feColorMatrix in="SourceAlpha" type="matrix" values="0 0 0 0 0 0 0 0 0 0 0 0 0 0 0 0 0 0 127 0" result="hardAlpha"/>
<feOffset dy="0.232328"/>
<feGaussianBlur stdDeviation="0.696983"/>
<feColorMatrix type="matrix" values="0 0 0 0 0.225 0 0 0 0 0.0874875 0 0 0 0 0.0440625 0 0 0 0.25 0"/>
<feBlend mode="normal" in2="effect1_dropShadow" result="effect2_dropShadow"/>
<feBlend mode="normal" in="SourceGraphic" in2="effect2_dropShadow" result="shape"/>
<feColorMatrix in="SourceAlpha" type="matrix" values="0 0 0 0 0 0 0 0 0 0 0 0 0 0 0 0 0 0 127 0" result="hardAlpha"/>
<feOffset dy="-1.39397"/>
<feGaussianBlur stdDeviation="1.39397"/>
<feComposite in2="hardAlpha" operator="arithmetic" k2="-1" k3="1"/>
<feColorMatrix type="matrix" values="0 0 0 0 0.629167 0 0 0 0 0.206786 0 0 0 0 0.0734028 0 0 0 0.11 0"/>
<feBlend mode="normal" in2="shape" result="effect3_innerShadow"/>
<feColorMatrix in="SourceAlpha" type="matrix" values="0 0 0 0 0 0 0 0 0 0 0 0 0 0 0 0 0 0 127 0" result="hardAlpha"/>
<feOffset dy="-1.44972"/>
<feGaussianBlur stdDeviation="1.44972"/>
<feComposite in2="hardAlpha" operator="arithmetic" k2="-1" k3="1"/>
<feColorMatrix type="matrix" values="0 0 0 0 0.956863 0 0 0 0 0.72549 0 0 0 0 0.639216 0 0 0 0.14 0"/>
<feBlend mode="normal" in2="effect3_innerShadow" result="effect4_innerShadow"/>
</filter>
<filter id="filter4_ddii" x="100.642" y="103.55" width="34.5491" height="16.0098" filterUnits="userSpaceOnUse" color-interpolation-filters="sRGB">
<feFlood flood-opacity="0" result="BackgroundImageFix"/>
<feColorMatrix in="SourceAlpha" type="matrix" values="0 0 0 0 0 0 0 0 0 0 0 0 0 0 0 0 0 0 127 0" result="hardAlpha"/>
<feOffset dy="0.696983"/>
<feGaussianBlur stdDeviation="0.929311"/>
<feColorMatrix type="matrix" values="0 0 0 0 0.520833 0 0 0 0 0.0740885 0 0 0 0 0.0455729 0 0 0 0.45 0"/>
<feBlend mode="normal" in2="BackgroundImageFix" result="effect1_dropShadow"/>
<feColorMatrix in="SourceAlpha" type="matrix" values="0 0 0 0 0 0 0 0 0 0 0 0 0 0 0 0 0 0 127 0" result="hardAlpha"/>
<feOffset dy="0.232328"/>
<feGaussianBlur stdDeviation="0.696983"/>
<feColorMatrix type="matrix" values="0 0 0 0 0.225 0 0 0 0 0.0874875 0 0 0 0 0.0440625 0 0 0 0.25 0"/>
<feBlend mode="normal" in2="effect1_dropShadow" result="effect2_dropShadow"/>
<feBlend mode="normal" in="SourceGraphic" in2="effect2_dropShadow" result="shape"/>
<feColorMatrix in="SourceAlpha" type="matrix" values="0 0 0 0 0 0 0 0 0 0 0 0 0 0 0 0 0 0 127 0" result="hardAlpha"/>
<feOffset dy="-1.39397"/>
<feGaussianBlur stdDeviation="1.39397"/>
<feComposite in2="hardAlpha" operator="arithmetic" k2="-1" k3="1"/>
<feColorMatrix type="matrix" values="0 0 0 0 0.629167 0 0 0 0 0.206786 0 0 0 0 0.0734028 0 0 0 0.11 0"/>
<feBlend mode="normal" in2="shape" result="effect3_innerShadow"/>
<feColorMatrix in="SourceAlpha" type="matrix" values="0 0 0 0 0 0 0 0 0 0 0 0 0 0 0 0 0 0 127 0" result="hardAlpha"/>
<feOffset dy="-1.44972"/>
<feGaussianBlur stdDeviation="1.44972"/>
<feComposite in2="hardAlpha" operator="arithmetic" k2="-1" k3="1"/>
<feColorMatrix type="matrix" values="0 0 0 0 0.956863 0 0 0 0 0.72549 0 0 0 0 0.639216 0 0 0 0.14 0"/>
<feBlend mode="normal" in2="effect3_innerShadow" result="effect4_innerShadow"/>
</filter>
<radialGradient id="paint0_radial" cx="0" cy="0" r="1" gradientUnits="userSpaceOnUse" gradientTransform="translate(138.672 90.9851) rotate(90) scale(31.4328 32.306)">
<stop stop-color="#FDF3DF"/>
<stop offset="1" stop-color="#FFC533"/>
</radialGradient>
<radialGradient id="paint1_radial" cx="0" cy="0" r="1" gradientUnits="userSpaceOnUse" gradientTransform="translate(170.978 129.672) rotate(172.844) scale(25.8807 25.2032)">
<stop stop-color="#FF5C28"/>
<stop offset="1" stop-color="#FF5C28" stop-opacity="0"/>
</radialGradient>
<radialGradient id="paint2_radial" cx="0" cy="0" r="1" gradientUnits="userSpaceOnUse" gradientTransform="translate(112.109 131.176) rotate(32.9694) scale(22.1169 21.8781)">
<stop stop-color="#FF5C28"/>
<stop offset="1" stop-color="#FF5C28" stop-opacity="0"/>
</radialGradient>
<radialGradient id="paint3_radial" cx="0" cy="0" r="1" gradientUnits="userSpaceOnUse" gradientTransform="translate(138.514 135.903) rotate(90) scale(23.1968 90.6713)">
<stop/>
<stop offset="1" stop-opacity="0"/>
</radialGradient>
<linearGradient id="paint4_linear" x1="168.476" y1="136.605" x2="168.476" y2="170.316" gradientUnits="userSpaceOnUse">
<stop stop-color="#FF2929"/>
<stop offset="1" stop-color="#D22626"/>
</linearGradient>
<radialGradient id="paint5_radial" cx="0" cy="0" r="1" gradientUnits="userSpaceOnUse" gradientTransform="translate(156.835 144.496) rotate(57.2115) scale(19.9604 19.1812)">
<stop stop-color="#FFD6D6"/>
<stop offset="1" stop-color="#FFDADA" stop-opacity="0"/>
</radialGradient>
<radialGradient id="paint6_radial" cx="0" cy="0" r="1" gradientUnits="userSpaceOnUse" gradientTransform="translate(176.095 144.034) rotate(90.4512) scale(17.2432 17.1743)">
<stop offset="0.0178721" stop-color="#FFD6D6"/>
<stop offset="1" stop-color="#FFDADA" stop-opacity="0"/>
</radialGradient>
<radialGradient id="paint7_radial" cx="0" cy="0" r="1" gradientUnits="userSpaceOnUse" gradientTransform="translate(157.158 107.467) rotate(43.7765) scale(11.0588 15.2171)">
<stop stop-color="white"/>
<stop offset="1" stop-opacity="0"/>
</radialGradient>
<radialGradient id="paint8_radial" cx="0" cy="0" r="1" gradientUnits="userSpaceOnUse" gradientTransform="translate(113.994 107.467) rotate(43.7765) scale(11.0588 15.2171)">
<stop stop-color="white"/>
<stop offset="1" stop-opacity="0"/>
</radialGradient>
</defs>
</svg>
