<svg width="276" height="275" viewBox="0 0 276 275" fill="none" xmlns="http://www.w3.org/2000/svg">
<g filter="url(#filter0_ddiiii)">
<path d="M191 119.5C191 149.047 167.047 173 137.5 173C107.953 173 84 149.047 84 119.5C84 89.9531 107.953 66 137.5 66C167.047 66 191 89.9531 191 119.5Z" fill="url(#paint0_radial)"/>
<path d="M191 119.5C191 149.047 167.047 173 137.5 173C107.953 173 84 149.047 84 119.5C84 89.9531 107.953 66 137.5 66C167.047 66 191 89.9531 191 119.5Z" fill="url(#paint1_radial)" fill-opacity="0.4"/>
<path d="M191 119.5C191 149.047 167.047 173 137.5 173C107.953 173 84 149.047 84 119.5C84 89.9531 107.953 66 137.5 66C167.047 66 191 89.9531 191 119.5Z" fill="url(#paint2_radial)" fill-opacity="0.4"/>
</g>
<g filter="url(#filter1_ii)">
<path d="M137.5 130.94C128.684 130.94 122.832 129.912 115.598 128.506C113.942 128.191 110.729 128.506 110.729 133.374C110.729 143.108 121.914 155.277 137.5 155.277C153.086 155.277 164.271 143.108 164.271 133.374C164.271 128.506 161.055 128.188 159.402 128.506C152.168 129.912 146.319 130.94 137.5 130.94Z" fill="#9F5600"/>
<path d="M137.5 130.94C128.684 130.94 122.832 129.912 115.598 128.506C113.942 128.191 110.729 128.506 110.729 133.374C110.729 143.108 121.914 155.277 137.5 155.277C153.086 155.277 164.271 143.108 164.271 133.374C164.271 128.506 161.055 128.188 159.402 128.506C152.168 129.912 146.319 130.94 137.5 130.94Z" fill="url(#paint3_radial)" fill-opacity="0.5"/>
</g>
<path d="M115.693 128.015L115.693 128.015L115.691 128.015C114.797 127.845 113.432 127.832 112.273 128.575C111.078 129.342 110.229 130.825 110.229 133.374C110.229 138.422 113.118 144.023 117.936 148.348C122.764 152.682 129.574 155.777 137.5 155.777C145.426 155.777 152.236 152.682 157.064 148.348C161.882 144.023 164.771 138.422 164.771 133.374C164.771 130.825 163.921 129.341 162.726 128.574C161.566 127.83 160.201 127.843 159.308 128.015L159.307 128.015C152.083 129.419 146.271 130.44 137.5 130.44C128.733 130.44 122.917 129.419 115.693 128.015Z" stroke="#FEC535"/>
<g filter="url(#filter2_dddiii)">
<path d="M191.645 88.1165C190.749 83.2801 188.062 79.3392 183.584 78.0853C178.748 76.8314 174.449 78.6227 170.329 82.9218C168 76.4731 164.417 71.6366 158.685 69.1288C152.953 66.621 147.221 68.4123 143.638 72.8905C139.877 77.5479 138.443 84.8922 142.384 94.3861C146.146 103.343 162.805 121.255 163.342 121.793C164.059 121.435 182.688 109.791 187.167 104.059C191.645 98.5061 192.541 92.953 191.645 88.1165Z" fill="url(#paint4_linear)"/>
<path d="M191.645 88.1165C190.749 83.2801 188.062 79.3392 183.584 78.0853C178.748 76.8314 174.449 78.6227 170.329 82.9218C168 76.4731 164.417 71.6366 158.685 69.1288C152.953 66.621 147.221 68.4123 143.638 72.8905C139.877 77.5479 138.443 84.8922 142.384 94.3861C146.146 103.343 162.805 121.255 163.342 121.793C164.059 121.435 182.688 109.791 187.167 104.059C191.645 98.5061 192.541 92.953 191.645 88.1165Z" fill="url(#paint5_radial)" fill-opacity="0.8"/>
<path d="M191.645 88.1165C190.749 83.2801 188.062 79.3392 183.584 78.0853C178.748 76.8314 174.449 78.6227 170.329 82.9218C168 76.4731 164.417 71.6366 158.685 69.1288C152.953 66.621 147.221 68.4123 143.638 72.8905C139.877 77.5479 138.443 84.8922 142.384 94.3861C146.146 103.343 162.805 121.255 163.342 121.793C164.059 121.435 182.688 109.791 187.167 104.059C191.645 98.5061 192.541 92.953 191.645 88.1165Z" fill="url(#paint6_radial)" fill-opacity="0.8"/>
</g>
<g filter="url(#filter3_dddiii)">
<path d="M132.89 72.8905C129.308 68.4123 123.576 66.621 117.844 69.1288C112.111 71.6366 108.529 76.4731 106.2 82.9218C101.901 78.8018 97.6019 76.8314 92.7654 78.2644C88.4663 79.5183 85.6003 83.4592 84.7046 88.2957C83.809 92.953 84.8837 98.6852 89.1828 104.238C93.8402 109.791 112.47 121.435 113.186 121.793C113.724 121.255 130.383 103.343 134.144 94.3861C138.085 84.8922 136.652 77.727 132.89 72.8905Z" fill="url(#paint7_linear)"/>
<path d="M132.89 72.8905C129.308 68.4123 123.576 66.621 117.844 69.1288C112.111 71.6366 108.529 76.4731 106.2 82.9218C101.901 78.8018 97.6019 76.8314 92.7654 78.2644C88.4663 79.5183 85.6003 83.4592 84.7046 88.2957C83.809 92.953 84.8837 98.6852 89.1828 104.238C93.8402 109.791 112.47 121.435 113.186 121.793C113.724 121.255 130.383 103.343 134.144 94.3861C138.085 84.8922 136.652 77.727 132.89 72.8905Z" fill="url(#paint8_radial)" fill-opacity="0.8"/>
<path d="M132.89 72.8905C129.308 68.4123 123.576 66.621 117.844 69.1288C112.111 71.6366 108.529 76.4731 106.2 82.9218C101.901 78.8018 97.6019 76.8314 92.7654 78.2644C88.4663 79.5183 85.6003 83.4592 84.7046 88.2957C83.809 92.953 84.8837 98.6852 89.1828 104.238C93.8402 109.791 112.47 121.435 113.186 121.793C113.724 121.255 130.383 103.343 134.144 94.3861C138.085 84.8922 136.652 77.727 132.89 72.8905Z" fill="url(#paint9_radial)" fill-opacity="0.8"/>
</g>
<defs>
<filter id="filter0_ddiiii" x="0" y="0" width="275" height="275" filterUnits="userSpaceOnUse" color-interpolation-filters="sRGB">
<feFlood flood-opacity="0" result="BackgroundImageFix"/>
<feColorMatrix in="SourceAlpha" type="matrix" values="0 0 0 0 0 0 0 0 0 0 0 0 0 0 0 0 0 0 127 0" result="hardAlpha"/>
<feMorphology radius="4" operator="erode" in="SourceAlpha" result="effect1_dropShadow"/>
<feOffset dy="18"/>
<feGaussianBlur stdDeviation="44"/>
<feColorMatrix type="matrix" values="0 0 0 0 0.0941176 0 0 0 0 0.152941 0 0 0 0 0.294118 0 0 0 0.24 0"/>
<feBlend mode="normal" in2="BackgroundImageFix" result="effect1_dropShadow"/>
<feColorMatrix in="SourceAlpha" type="matrix" values="0 0 0 0 0 0 0 0 0 0 0 0 0 0 0 0 0 0 127 0" result="hardAlpha"/>
<feMorphology radius="6" operator="erode" in="SourceAlpha" result="effect2_dropShadow"/>
<feOffset dy="8"/>
<feGaussianBlur stdDeviation="14"/>
<feColorMatrix type="matrix" values="0 0 0 0 0.0941176 0 0 0 0 0.152941 0 0 0 0 0.294118 0 0 0 0.22 0"/>
<feBlend mode="normal" in2="effect1_dropShadow" result="effect2_dropShadow"/>
<feBlend mode="normal" in="SourceGraphic" in2="effect2_dropShadow" result="shape"/>
<feColorMatrix in="SourceAlpha" type="matrix" values="0 0 0 0 0 0 0 0 0 0 0 0 0 0 0 0 0 0 127 0" result="hardAlpha"/>
<feOffset dy="-10"/>
<feGaussianBlur stdDeviation="5"/>
<feComposite in2="hardAlpha" operator="arithmetic" k2="-1" k3="1"/>
<feColorMatrix type="matrix" values="0 0 0 0 0.741667 0 0 0 0 0.356 0 0 0 0 0 0 0 0 0.3 0"/>
<feBlend mode="normal" in2="shape" result="effect3_innerShadow"/>
<feColorMatrix in="SourceAlpha" type="matrix" values="0 0 0 0 0 0 0 0 0 0 0 0 0 0 0 0 0 0 127 0" result="hardAlpha"/>
<feOffset dy="-3"/>
<feGaussianBlur stdDeviation="1.5"/>
<feComposite in2="hardAlpha" operator="arithmetic" k2="-1" k3="1"/>
<feColorMatrix type="matrix" values="0 0 0 0 0.741176 0 0 0 0 0.356863 0 0 0 0 0 0 0 0 0.25 0"/>
<feBlend mode="normal" in2="effect3_innerShadow" result="effect4_innerShadow"/>
<feColorMatrix in="SourceAlpha" type="matrix" values="0 0 0 0 0 0 0 0 0 0 0 0 0 0 0 0 0 0 127 0" result="hardAlpha"/>
<feOffset/>
<feGaussianBlur stdDeviation="3"/>
<feComposite in2="hardAlpha" operator="arithmetic" k2="-1" k3="1"/>
<feColorMatrix type="matrix" values="0 0 0 0 0.776471 0 0 0 0 0.278431 0 0 0 0 0 0 0 0 0.75 0"/>
<feBlend mode="normal" in2="effect4_innerShadow" result="effect5_innerShadow"/>
<feColorMatrix in="SourceAlpha" type="matrix" values="0 0 0 0 0 0 0 0 0 0 0 0 0 0 0 0 0 0 127 0" result="hardAlpha"/>
<feOffset dy="-3"/>
<feGaussianBlur stdDeviation="1.5"/>
<feComposite in2="hardAlpha" operator="arithmetic" k2="-1" k3="1"/>
<feColorMatrix type="matrix" values="0 0 0 0 1 0 0 0 0 1 0 0 0 0 1 0 0 0 0.5 0"/>
<feBlend mode="normal" in2="effect5_innerShadow" result="effect6_innerShadow"/>
</filter>
<filter id="filter1_ii" x="109.729" y="127.418" width="55.5416" height="32.8584" filterUnits="userSpaceOnUse" color-interpolation-filters="sRGB">
<feFlood flood-opacity="0" result="BackgroundImageFix"/>
<feBlend mode="normal" in="SourceGraphic" in2="BackgroundImageFix" result="shape"/>
<feColorMatrix in="SourceAlpha" type="matrix" values="0 0 0 0 0 0 0 0 0 0 0 0 0 0 0 0 0 0 127 0" result="hardAlpha"/>
<feOffset dy="1"/>
<feGaussianBlur stdDeviation="1"/>
<feComposite in2="hardAlpha" operator="arithmetic" k2="-1" k3="1"/>
<feColorMatrix type="matrix" values="0 0 0 0 0 0 0 0 0 0 0 0 0 0 0 0 0 0 0.25 0"/>
<feBlend mode="normal" in2="shape" result="effect1_innerShadow"/>
<feColorMatrix in="SourceAlpha" type="matrix" values="0 0 0 0 0 0 0 0 0 0 0 0 0 0 0 0 0 0 127 0" result="hardAlpha"/>
<feOffset dy="4"/>
<feGaussianBlur stdDeviation="2"/>
<feComposite in2="hardAlpha" operator="arithmetic" k2="-1" k3="1"/>
<feColorMatrix type="matrix" values="0 0 0 0 0 0 0 0 0 0 0 0 0 0 0 0 0 0 0.15 0"/>
<feBlend mode="normal" in2="effect1_innerShadow" result="effect2_innerShadow"/>
</filter>
<filter id="filter2_dddiii" x="56.0369" y="1.98796" width="219.92" height="221.805" filterUnits="userSpaceOnUse" color-interpolation-filters="sRGB">
<feFlood flood-opacity="0" result="BackgroundImageFix"/>
<feColorMatrix in="SourceAlpha" type="matrix" values="0 0 0 0 0 0 0 0 0 0 0 0 0 0 0 0 0 0 127 0" result="hardAlpha"/>
<feMorphology radius="6" operator="erode" in="SourceAlpha" result="effect1_dropShadow"/>
<feOffset dx="2" dy="3"/>
<feGaussianBlur stdDeviation="2"/>
<feColorMatrix type="matrix" values="0 0 0 0 0.0941176 0 0 0 0 0.152941 0 0 0 0 0.294118 0 0 0 0.22 0"/>
<feBlend mode="multiply" in2="BackgroundImageFix" result="effect1_dropShadow"/>
<feColorMatrix in="SourceAlpha" type="matrix" values="0 0 0 0 0 0 0 0 0 0 0 0 0 0 0 0 0 0 127 0" result="hardAlpha"/>
<feMorphology radius="4" operator="erode" in="SourceAlpha" result="effect2_dropShadow"/>
<feOffset dy="18"/>
<feGaussianBlur stdDeviation="44"/>
<feColorMatrix type="matrix" values="0 0 0 0 0.0941176 0 0 0 0 0.152941 0 0 0 0 0.294118 0 0 0 0.24 0"/>
<feBlend mode="normal" in2="effect1_dropShadow" result="effect2_dropShadow"/>
<feColorMatrix in="SourceAlpha" type="matrix" values="0 0 0 0 0 0 0 0 0 0 0 0 0 0 0 0 0 0 127 0" result="hardAlpha"/>
<feMorphology radius="6" operator="erode" in="SourceAlpha" result="effect3_dropShadow"/>
<feOffset dy="8"/>
<feGaussianBlur stdDeviation="14"/>
<feColorMatrix type="matrix" values="0 0 0 0 0.0941176 0 0 0 0 0.152941 0 0 0 0 0.294118 0 0 0 0.22 0"/>
<feBlend mode="normal" in2="effect2_dropShadow" result="effect3_dropShadow"/>
<feBlend mode="normal" in="SourceGraphic" in2="effect3_dropShadow" result="shape"/>
<feColorMatrix in="SourceAlpha" type="matrix" values="0 0 0 0 0 0 0 0 0 0 0 0 0 0 0 0 0 0 127 0" result="hardAlpha"/>
<feOffset/>
<feGaussianBlur stdDeviation="1"/>
<feComposite in2="hardAlpha" operator="arithmetic" k2="-1" k3="1"/>
<feColorMatrix type="matrix" values="0 0 0 0 0.441667 0 0 0 0 0 0 0 0 0 0 0 0 0 1 0"/>
<feBlend mode="normal" in2="shape" result="effect4_innerShadow"/>
<feColorMatrix in="SourceAlpha" type="matrix" values="0 0 0 0 0 0 0 0 0 0 0 0 0 0 0 0 0 0 127 0" result="hardAlpha"/>
<feOffset dx="-1" dy="-3"/>
<feGaussianBlur stdDeviation="3.5"/>
<feComposite in2="hardAlpha" operator="arithmetic" k2="-1" k3="1"/>
<feColorMatrix type="matrix" values="0 0 0 0 1 0 0 0 0 1 0 0 0 0 1 0 0 0 0.4 0"/>
<feBlend mode="normal" in2="effect4_innerShadow" result="effect5_innerShadow"/>
<feColorMatrix in="SourceAlpha" type="matrix" values="0 0 0 0 0 0 0 0 0 0 0 0 0 0 0 0 0 0 127 0" result="hardAlpha"/>
<feOffset dx="2" dy="2"/>
<feGaussianBlur stdDeviation="2"/>
<feComposite in2="hardAlpha" operator="arithmetic" k2="-1" k3="1"/>
<feColorMatrix type="matrix" values="0 0 0 0 1 0 0 0 0 0.160784 0 0 0 0 0.160784 0 0 0 1 0"/>
<feBlend mode="normal" in2="effect5_innerShadow" result="effect6_innerShadow"/>
</filter>
<filter id="filter3_dddiii" x="0.412598" y="1.98796" width="220.079" height="221.805" filterUnits="userSpaceOnUse" color-interpolation-filters="sRGB">
<feFlood flood-opacity="0" result="BackgroundImageFix"/>
<feColorMatrix in="SourceAlpha" type="matrix" values="0 0 0 0 0 0 0 0 0 0 0 0 0 0 0 0 0 0 127 0" result="hardAlpha"/>
<feMorphology radius="6" operator="erode" in="SourceAlpha" result="effect1_dropShadow"/>
<feOffset dx="-3" dy="2"/>
<feGaussianBlur stdDeviation="2"/>
<feColorMatrix type="matrix" values="0 0 0 0 0.0941176 0 0 0 0 0.152941 0 0 0 0 0.294118 0 0 0 0.22 0"/>
<feBlend mode="multiply" in2="BackgroundImageFix" result="effect1_dropShadow"/>
<feColorMatrix in="SourceAlpha" type="matrix" values="0 0 0 0 0 0 0 0 0 0 0 0 0 0 0 0 0 0 127 0" result="hardAlpha"/>
<feMorphology radius="4" operator="erode" in="SourceAlpha" result="effect2_dropShadow"/>
<feOffset dy="18"/>
<feGaussianBlur stdDeviation="44"/>
<feColorMatrix type="matrix" values="0 0 0 0 0.0941176 0 0 0 0 0.152941 0 0 0 0 0.294118 0 0 0 0.24 0"/>
<feBlend mode="normal" in2="effect1_dropShadow" result="effect2_dropShadow"/>
<feColorMatrix in="SourceAlpha" type="matrix" values="0 0 0 0 0 0 0 0 0 0 0 0 0 0 0 0 0 0 127 0" result="hardAlpha"/>
<feMorphology radius="6" operator="erode" in="SourceAlpha" result="effect3_dropShadow"/>
<feOffset dy="8"/>
<feGaussianBlur stdDeviation="14"/>
<feColorMatrix type="matrix" values="0 0 0 0 0.0941176 0 0 0 0 0.152941 0 0 0 0 0.294118 0 0 0 0.22 0"/>
<feBlend mode="normal" in2="effect2_dropShadow" result="effect3_dropShadow"/>
<feBlend mode="normal" in="SourceGraphic" in2="effect3_dropShadow" result="shape"/>
<feColorMatrix in="SourceAlpha" type="matrix" values="0 0 0 0 0 0 0 0 0 0 0 0 0 0 0 0 0 0 127 0" result="hardAlpha"/>
<feOffset/>
<feGaussianBlur stdDeviation="1"/>
<feComposite in2="hardAlpha" operator="arithmetic" k2="-1" k3="1"/>
<feColorMatrix type="matrix" values="0 0 0 0 0.441667 0 0 0 0 0 0 0 0 0 0 0 0 0 1 0"/>
<feBlend mode="normal" in2="shape" result="effect4_innerShadow"/>
<feColorMatrix in="SourceAlpha" type="matrix" values="0 0 0 0 0 0 0 0 0 0 0 0 0 0 0 0 0 0 127 0" result="hardAlpha"/>
<feOffset dx="-1" dy="-3"/>
<feGaussianBlur stdDeviation="3.5"/>
<feComposite in2="hardAlpha" operator="arithmetic" k2="-1" k3="1"/>
<feColorMatrix type="matrix" values="0 0 0 0 1 0 0 0 0 1 0 0 0 0 1 0 0 0 0.4 0"/>
<feBlend mode="normal" in2="effect4_innerShadow" result="effect5_innerShadow"/>
<feColorMatrix in="SourceAlpha" type="matrix" values="0 0 0 0 0 0 0 0 0 0 0 0 0 0 0 0 0 0 127 0" result="hardAlpha"/>
<feOffset dx="2" dy="2"/>
<feGaussianBlur stdDeviation="2"/>
<feComposite in2="hardAlpha" operator="arithmetic" k2="-1" k3="1"/>
<feColorMatrix type="matrix" values="0 0 0 0 1 0 0 0 0 0.160784 0 0 0 0 0.160784 0 0 0 1 0"/>
<feBlend mode="normal" in2="effect5_innerShadow" result="effect6_innerShadow"/>
</filter>
<radialGradient id="paint0_radial" cx="0" cy="0" r="1" gradientUnits="userSpaceOnUse" gradientTransform="translate(136.701 90.7537) rotate(90) scale(31.1418)">
<stop stop-color="#FDF3DF"/>
<stop offset="1" stop-color="#FFC533"/>
</radialGradient>
<radialGradient id="paint1_radial" cx="0" cy="0" r="1" gradientUnits="userSpaceOnUse" gradientTransform="translate(167.843 129.082) rotate(172.648) scale(24.9589)">
<stop stop-color="#FF5C28"/>
<stop offset="1" stop-color="#FF5C28" stop-opacity="0"/>
</radialGradient>
<radialGradient id="paint2_radial" cx="0" cy="0" r="1" gradientUnits="userSpaceOnUse" gradientTransform="translate(111.096 130.573) rotate(33.6901) scale(21.497)">
<stop stop-color="#FF5C28"/>
<stop offset="1" stop-color="#FF5C28" stop-opacity="0"/>
</radialGradient>
<radialGradient id="paint3_radial" cx="0" cy="0" r="1" gradientUnits="userSpaceOnUse" gradientTransform="translate(136.787 134.596) rotate(90) scale(20.7707 65.6064)">
<stop/>
<stop offset="1" stop-opacity="0"/>
</radialGradient>
<linearGradient id="paint4_linear" x1="165.997" y1="67.988" x2="165.997" y2="121.793" gradientUnits="userSpaceOnUse">
<stop stop-color="#FF2929"/>
<stop offset="1" stop-color="#D22626"/>
</linearGradient>
<radialGradient id="paint5_radial" cx="0" cy="0" r="1" gradientUnits="userSpaceOnUse" gradientTransform="translate(154.769 80.3723) rotate(69.1801) scale(15.1902 12.9754)">
<stop stop-color="#FFD6D6"/>
<stop offset="1" stop-color="#FFDADA" stop-opacity="0"/>
</radialGradient>
<radialGradient id="paint6_radial" cx="0" cy="0" r="1" gradientUnits="userSpaceOnUse" gradientTransform="translate(176.147 79.8442) rotate(68.748) scale(18.0902 15.6815)">
<stop offset="0.0178721" stop-color="#FFD6D6"/>
<stop offset="1" stop-color="#FFDADA" stop-opacity="0"/>
</radialGradient>
<linearGradient id="paint7_linear" x1="110.452" y1="67.988" x2="110.452" y2="121.793" gradientUnits="userSpaceOnUse">
<stop stop-color="#FF2929"/>
<stop offset="1" stop-color="#D22626"/>
</linearGradient>
<radialGradient id="paint8_radial" cx="0" cy="0" r="1" gradientUnits="userSpaceOnUse" gradientTransform="translate(99.1899 80.3723) rotate(69.1219) scale(15.1961 13.0101)">
<stop stop-color="#FFD6D6"/>
<stop offset="1" stop-color="#FFDADA" stop-opacity="0"/>
</radialGradient>
<radialGradient id="paint9_radial" cx="0" cy="0" r="1" gradientUnits="userSpaceOnUse" gradientTransform="translate(120.633 79.8442) rotate(68.6888) scale(18.0975 15.7232)">
<stop offset="0.0178721" stop-color="#FFD6D6"/>
<stop offset="1" stop-color="#FFDADA" stop-opacity="0"/>
</radialGradient>
</defs>
</svg>
