<svg width="276" height="276" viewBox="0 0 276 276" fill="none" xmlns="http://www.w3.org/2000/svg">
<g filter="url(#filter0_ddiiii)">
<path d="M138 174C167.823 174 192 149.823 192 120C192 90.1766 167.823 66 138 66C108.177 66 84 90.1766 84 120C84 149.823 108.177 174 138 174Z" fill="url(#paint0_radial)"/>
<path d="M138 174C167.823 174 192 149.823 192 120C192 90.1766 167.823 66 138 66C108.177 66 84 90.1766 84 120C84 149.823 108.177 174 138 174Z" fill="url(#paint1_radial)" fill-opacity="0.4"/>
<path d="M138 174C167.823 174 192 149.823 192 120C192 90.1766 167.823 66 138 66C108.177 66 84 90.1766 84 120C84 149.823 108.177 174 138 174Z" fill="url(#paint2_radial)" fill-opacity="0.4"/>
</g>
<path d="M147.687 77.8411C147.687 78.5611 147.777 79.2571 147.933 79.9291C149.208 87.8581 158.025 96.2221 164.343 98.5201C169.338 96.7051 175.881 91.0921 179.037 84.9031C172.702 77.4955 164.484 71.9376 155.25 68.8171C153.131 69.1956 151.213 70.3067 149.831 71.9563C148.448 73.6058 147.689 75.6888 147.687 77.8411ZM125.229 153.234C125.4 152.508 125.499 151.752 125.499 150.972C125.499 148.331 124.45 145.799 122.583 143.931C120.715 142.064 118.183 141.015 115.542 141.015C113.959 141.015 112.399 141.393 110.991 142.118C109.584 142.843 108.37 143.893 107.451 145.182C106.531 143.894 105.318 142.843 103.91 142.118C102.503 141.394 100.943 141.015 99.36 141.015C97.5969 141.019 95.8668 141.493 94.3481 142.389C92.8294 143.284 91.5769 144.568 90.72 146.109C96.2134 156.028 104.678 163.974 114.924 168.831C119.835 164.778 124.317 158.91 125.229 153.234ZM186.903 142.926C186.54 141.689 185.837 140.579 184.873 139.723C183.909 138.867 182.724 138.299 181.453 138.085C180.182 137.871 178.876 138.018 177.685 138.511C176.494 139.004 175.465 139.822 174.717 140.871C173.786 139.581 172.437 138.652 170.899 138.243C169.361 137.834 167.729 137.969 166.28 138.625C164.83 139.282 163.652 140.419 162.945 141.845C162.239 143.271 162.047 144.897 162.402 146.448C163.323 152.163 169.446 158.136 174.129 160.131C179.491 155.305 183.834 149.455 186.903 142.926Z" fill="#FFAC33"/>
<g filter="url(#filter1_ddiii)">
<path d="M191.844 144.381C191.842 142.922 191.377 141.501 190.517 140.322C189.656 139.144 188.444 138.269 187.054 137.823C185.665 137.377 184.17 137.384 182.784 137.841C181.398 138.299 180.194 139.184 179.343 140.37C178.412 139.08 177.063 138.151 175.525 137.742C173.987 137.333 172.355 137.468 170.906 138.124C169.456 138.781 168.278 139.918 167.571 141.344C166.865 142.77 166.673 144.396 167.028 145.947C167.985 151.896 174.6 158.175 179.343 159.897C184.083 158.175 190.701 151.896 191.655 145.947C191.775 145.443 191.844 144.921 191.844 144.381Z" fill="url(#paint3_linear)"/>
<path d="M191.844 144.381C191.842 142.922 191.377 141.501 190.517 140.322C189.656 139.144 188.444 138.269 187.054 137.823C185.665 137.377 184.17 137.384 182.784 137.841C181.398 138.299 180.194 139.184 179.343 140.37C178.412 139.08 177.063 138.151 175.525 137.742C173.987 137.333 172.355 137.468 170.906 138.124C169.456 138.781 168.278 139.918 167.571 141.344C166.865 142.77 166.673 144.396 167.028 145.947C167.985 151.896 174.6 158.175 179.343 159.897C184.083 158.175 190.701 151.896 191.655 145.947C191.775 145.443 191.844 144.921 191.844 144.381Z" fill="url(#paint4_radial)" fill-opacity="0.8"/>
<path d="M191.844 144.381C191.842 142.922 191.377 141.501 190.517 140.322C189.656 139.144 188.444 138.269 187.054 137.823C185.665 137.377 184.17 137.384 182.784 137.841C181.398 138.299 180.194 139.184 179.343 140.37C178.412 139.08 177.063 138.151 175.525 137.742C173.987 137.333 172.355 137.468 170.906 138.124C169.456 138.781 168.278 139.918 167.571 141.344C166.865 142.77 166.673 144.396 167.028 145.947C167.985 151.896 174.6 158.175 179.343 159.897C184.083 158.175 190.701 151.896 191.655 145.947C191.775 145.443 191.844 144.921 191.844 144.381Z" fill="url(#paint5_radial)" fill-opacity="0.8"/>
</g>
<g filter="url(#filter2_ddiii)">
<path d="M184.875 75.807C184.875 73.3699 183.907 71.0326 182.184 69.3094C180.46 67.5861 178.123 66.618 175.686 66.618C174.225 66.6179 172.785 66.9669 171.486 67.6359C170.187 68.3049 169.067 69.2745 168.219 70.464C166.979 68.7432 165.181 67.5045 163.132 66.9581C161.082 66.4117 158.906 66.5912 156.974 67.4663C155.042 68.3413 153.472 69.8579 152.53 71.7588C151.589 73.6596 151.334 75.8276 151.809 77.895C153.087 85.824 161.901 94.188 168.219 96.486C174.537 94.188 183.351 85.824 184.626 77.898C184.785 77.223 184.875 76.527 184.875 75.807Z" fill="url(#paint6_linear)"/>
<path d="M184.875 75.807C184.875 73.3699 183.907 71.0326 182.184 69.3094C180.46 67.5861 178.123 66.618 175.686 66.618C174.225 66.6179 172.785 66.9669 171.486 67.6359C170.187 68.3049 169.067 69.2745 168.219 70.464C166.979 68.7432 165.181 67.5045 163.132 66.9581C161.082 66.4117 158.906 66.5912 156.974 67.4663C155.042 68.3413 153.472 69.8579 152.53 71.7588C151.589 73.6596 151.334 75.8276 151.809 77.895C153.087 85.824 161.901 94.188 168.219 96.486C174.537 94.188 183.351 85.824 184.626 77.898C184.785 77.223 184.875 76.527 184.875 75.807Z" fill="url(#paint7_radial)" fill-opacity="0.8"/>
<path d="M184.875 75.807C184.875 73.3699 183.907 71.0326 182.184 69.3094C180.46 67.5861 178.123 66.618 175.686 66.618C174.225 66.6179 172.785 66.9669 171.486 67.6359C170.187 68.3049 169.067 69.2745 168.219 70.464C166.979 68.7432 165.181 67.5045 163.132 66.9581C161.082 66.4117 158.906 66.5912 156.974 67.4663C155.042 68.3413 153.472 69.8579 152.53 71.7588C151.589 73.6596 151.334 75.8276 151.809 77.895C153.087 85.824 161.901 94.188 168.219 96.486C174.537 94.188 183.351 85.824 184.626 77.898C184.785 77.223 184.875 76.527 184.875 75.807Z" fill="url(#paint8_radial)" fill-opacity="0.8"/>
</g>
<g filter="url(#filter3_ddiii)">
<path d="M120.624 151.224C120.624 148.583 119.575 146.051 117.708 144.183C115.84 142.316 113.308 141.267 110.667 141.267C109.084 141.267 107.524 141.645 106.116 142.37C104.709 143.094 103.495 144.145 102.576 145.434C101.657 144.145 100.443 143.094 99.0358 142.369C97.6284 141.644 96.0681 141.267 94.485 141.267C92.9857 141.268 91.506 141.608 90.1563 142.26C88.8066 142.913 87.6217 143.862 86.6901 145.037C85.7585 146.212 85.1042 147.582 84.7761 149.045C84.4479 150.508 84.4544 152.026 84.795 153.486C86.178 162.075 95.727 171.138 102.573 173.628C109.419 171.141 118.968 162.078 120.351 153.489C120.525 152.757 120.624 152.001 120.624 151.224Z" fill="url(#paint9_linear)"/>
<path d="M120.624 151.224C120.624 148.583 119.575 146.051 117.708 144.183C115.84 142.316 113.308 141.267 110.667 141.267C109.084 141.267 107.524 141.645 106.116 142.37C104.709 143.094 103.495 144.145 102.576 145.434C101.657 144.145 100.443 143.094 99.0358 142.369C97.6284 141.644 96.0681 141.267 94.485 141.267C92.9857 141.268 91.506 141.608 90.1563 142.26C88.8066 142.913 87.6217 143.862 86.6901 145.037C85.7585 146.212 85.1042 147.582 84.7761 149.045C84.4479 150.508 84.4544 152.026 84.795 153.486C86.178 162.075 95.727 171.138 102.573 173.628C109.419 171.141 118.968 162.078 120.351 153.489C120.525 152.757 120.624 152.001 120.624 151.224Z" fill="url(#paint10_radial)" fill-opacity="0.8"/>
<path d="M120.624 151.224C120.624 148.583 119.575 146.051 117.708 144.183C115.84 142.316 113.308 141.267 110.667 141.267C109.084 141.267 107.524 141.645 106.116 142.37C104.709 143.094 103.495 144.145 102.576 145.434C101.657 144.145 100.443 143.094 99.0358 142.369C97.6284 141.644 96.0681 141.267 94.485 141.267C92.9857 141.268 91.506 141.608 90.1563 142.26C88.8066 142.913 87.6217 143.862 86.6901 145.037C85.7585 146.212 85.1042 147.582 84.7761 149.045C84.4479 150.508 84.4544 152.026 84.795 153.486C86.178 162.075 95.727 171.138 102.573 173.628C109.419 171.141 118.968 162.078 120.351 153.489C120.525 152.757 120.624 152.001 120.624 151.224Z" fill="url(#paint11_radial)" fill-opacity="0.8"/>
</g>
<g filter="url(#filter4_ddii)">
<path d="M132.624 115.854C129.37 106.994 124.488 102.474 119.606 102.474C114.725 102.474 109.843 106.994 106.588 115.854C106.227 116.758 107.854 118.385 108.758 117.481C111.832 114.226 115.629 112.78 119.606 112.78C123.584 112.78 127.381 114.046 130.454 117.481C131.359 118.385 132.986 116.758 132.624 115.854Z" fill="#5A3A13"/>
<path d="M132.624 115.854C129.37 106.994 124.488 102.474 119.606 102.474C114.725 102.474 109.843 106.994 106.588 115.854C106.227 116.758 107.854 118.385 108.758 117.481C111.832 114.226 115.629 112.78 119.606 112.78C123.584 112.78 127.381 114.046 130.454 117.481C131.359 118.385 132.986 116.758 132.624 115.854Z" fill="url(#paint12_radial)" style="mix-blend-mode:soft-light"/>
</g>
<g filter="url(#filter5_ddii)">
<path d="M168.716 116.408C165.461 107.549 160.58 103.029 155.698 103.029C150.816 103.029 145.935 107.549 142.68 116.408C142.318 117.312 143.946 118.939 144.85 118.035C147.923 114.781 151.72 113.334 155.698 113.334C159.676 113.334 163.473 114.6 166.546 118.035C167.269 118.939 169.077 117.312 168.716 116.408Z" fill="#5A3A13"/>
<path d="M168.716 116.408C165.461 107.549 160.58 103.029 155.698 103.029C150.816 103.029 145.935 107.549 142.68 116.408C142.318 117.312 143.946 118.939 144.85 118.035C147.923 114.781 151.72 113.334 155.698 113.334C159.676 113.334 163.473 114.6 166.546 118.035C167.269 118.939 169.077 117.312 168.716 116.408Z" fill="url(#paint13_radial)" style="mix-blend-mode:soft-light"/>
</g>
<g filter="url(#filter6_ii)">
<path d="M160.829 129.956C146.727 139.901 130.997 139.72 116.894 129.956C115.267 128.691 113.64 130.86 114.905 132.668C119.245 139.72 127.923 146.048 138.952 146.048C149.981 146.048 158.66 139.72 162.999 132.668C163.903 130.86 162.457 128.872 160.829 129.956Z" fill="#9F5600"/>
<path d="M160.829 129.956C146.727 139.901 130.997 139.72 116.894 129.956C115.267 128.691 113.64 130.86 114.905 132.668C119.245 139.72 127.923 146.048 138.952 146.048C149.981 146.048 158.66 139.72 162.999 132.668C163.903 130.86 162.457 128.872 160.829 129.956Z" fill="url(#paint14_radial)" fill-opacity="0.5"/>
</g>
<path d="M160.552 129.54L160.552 129.54L160.541 129.548C146.619 139.365 131.122 139.193 117.19 129.553C116.696 129.173 116.159 129.021 115.646 129.097C115.134 129.173 114.706 129.466 114.413 129.862C113.829 130.651 113.747 131.874 114.487 132.943C118.906 140.115 127.732 146.548 138.952 146.548C150.179 146.548 159.008 140.108 163.425 132.93L163.437 132.912L163.446 132.892C163.978 131.828 163.836 130.672 163.26 129.923C162.97 129.545 162.56 129.263 162.069 129.176C161.574 129.088 161.05 129.209 160.552 129.54Z" stroke="#FEC535"/>
<defs>
<filter id="filter0_ddiiii" x="0" y="0" width="276" height="276" filterUnits="userSpaceOnUse" color-interpolation-filters="sRGB">
<feFlood flood-opacity="0" result="BackgroundImageFix"/>
<feColorMatrix in="SourceAlpha" type="matrix" values="0 0 0 0 0 0 0 0 0 0 0 0 0 0 0 0 0 0 127 0" result="hardAlpha"/>
<feMorphology radius="4" operator="erode" in="SourceAlpha" result="effect1_dropShadow"/>
<feOffset dy="18"/>
<feGaussianBlur stdDeviation="44"/>
<feColorMatrix type="matrix" values="0 0 0 0 0.0941176 0 0 0 0 0.152941 0 0 0 0 0.294118 0 0 0 0.24 0"/>
<feBlend mode="normal" in2="BackgroundImageFix" result="effect1_dropShadow"/>
<feColorMatrix in="SourceAlpha" type="matrix" values="0 0 0 0 0 0 0 0 0 0 0 0 0 0 0 0 0 0 127 0" result="hardAlpha"/>
<feMorphology radius="6" operator="erode" in="SourceAlpha" result="effect2_dropShadow"/>
<feOffset dy="8"/>
<feGaussianBlur stdDeviation="14"/>
<feColorMatrix type="matrix" values="0 0 0 0 0.0941176 0 0 0 0 0.152941 0 0 0 0 0.294118 0 0 0 0.22 0"/>
<feBlend mode="normal" in2="effect1_dropShadow" result="effect2_dropShadow"/>
<feBlend mode="normal" in="SourceGraphic" in2="effect2_dropShadow" result="shape"/>
<feColorMatrix in="SourceAlpha" type="matrix" values="0 0 0 0 0 0 0 0 0 0 0 0 0 0 0 0 0 0 127 0" result="hardAlpha"/>
<feOffset dy="-10"/>
<feGaussianBlur stdDeviation="5"/>
<feComposite in2="hardAlpha" operator="arithmetic" k2="-1" k3="1"/>
<feColorMatrix type="matrix" values="0 0 0 0 0.741667 0 0 0 0 0.356 0 0 0 0 0 0 0 0 0.3 0"/>
<feBlend mode="normal" in2="shape" result="effect3_innerShadow"/>
<feColorMatrix in="SourceAlpha" type="matrix" values="0 0 0 0 0 0 0 0 0 0 0 0 0 0 0 0 0 0 127 0" result="hardAlpha"/>
<feOffset dy="-3"/>
<feGaussianBlur stdDeviation="1.5"/>
<feComposite in2="hardAlpha" operator="arithmetic" k2="-1" k3="1"/>
<feColorMatrix type="matrix" values="0 0 0 0 0.741176 0 0 0 0 0.356863 0 0 0 0 0 0 0 0 0.25 0"/>
<feBlend mode="normal" in2="effect3_innerShadow" result="effect4_innerShadow"/>
<feColorMatrix in="SourceAlpha" type="matrix" values="0 0 0 0 0 0 0 0 0 0 0 0 0 0 0 0 0 0 127 0" result="hardAlpha"/>
<feOffset/>
<feGaussianBlur stdDeviation="3"/>
<feComposite in2="hardAlpha" operator="arithmetic" k2="-1" k3="1"/>
<feColorMatrix type="matrix" values="0 0 0 0 0.776471 0 0 0 0 0.278431 0 0 0 0 0 0 0 0 0.75 0"/>
<feBlend mode="normal" in2="effect4_innerShadow" result="effect5_innerShadow"/>
<feColorMatrix in="SourceAlpha" type="matrix" values="0 0 0 0 0 0 0 0 0 0 0 0 0 0 0 0 0 0 127 0" result="hardAlpha"/>
<feOffset dy="-3"/>
<feGaussianBlur stdDeviation="1.5"/>
<feComposite in2="hardAlpha" operator="arithmetic" k2="-1" k3="1"/>
<feColorMatrix type="matrix" values="0 0 0 0 1 0 0 0 0 1 0 0 0 0 1 0 0 0 0.5 0"/>
<feBlend mode="normal" in2="effect5_innerShadow" result="effect6_innerShadow"/>
</filter>
<filter id="filter1_ddiii" x="82.8539" y="71.4934" width="192.99" height="190.404" filterUnits="userSpaceOnUse" color-interpolation-filters="sRGB">
<feFlood flood-opacity="0" result="BackgroundImageFix"/>
<feColorMatrix in="SourceAlpha" type="matrix" values="0 0 0 0 0 0 0 0 0 0 0 0 0 0 0 0 0 0 127 0" result="hardAlpha"/>
<feMorphology radius="4" operator="erode" in="SourceAlpha" result="effect1_dropShadow"/>
<feOffset dy="18"/>
<feGaussianBlur stdDeviation="44"/>
<feColorMatrix type="matrix" values="0 0 0 0 0.0941176 0 0 0 0 0.152941 0 0 0 0 0.294118 0 0 0 0.24 0"/>
<feBlend mode="normal" in2="BackgroundImageFix" result="effect1_dropShadow"/>
<feColorMatrix in="SourceAlpha" type="matrix" values="0 0 0 0 0 0 0 0 0 0 0 0 0 0 0 0 0 0 127 0" result="hardAlpha"/>
<feMorphology radius="6" operator="erode" in="SourceAlpha" result="effect2_dropShadow"/>
<feOffset dy="8"/>
<feGaussianBlur stdDeviation="14"/>
<feColorMatrix type="matrix" values="0 0 0 0 0.0941176 0 0 0 0 0.152941 0 0 0 0 0.294118 0 0 0 0.22 0"/>
<feBlend mode="normal" in2="effect1_dropShadow" result="effect2_dropShadow"/>
<feBlend mode="normal" in="SourceGraphic" in2="effect2_dropShadow" result="shape"/>
<feColorMatrix in="SourceAlpha" type="matrix" values="0 0 0 0 0 0 0 0 0 0 0 0 0 0 0 0 0 0 127 0" result="hardAlpha"/>
<feOffset/>
<feGaussianBlur stdDeviation="1"/>
<feComposite in2="hardAlpha" operator="arithmetic" k2="-1" k3="1"/>
<feColorMatrix type="matrix" values="0 0 0 0 0.441667 0 0 0 0 0 0 0 0 0 0 0 0 0 1 0"/>
<feBlend mode="normal" in2="shape" result="effect3_innerShadow"/>
<feColorMatrix in="SourceAlpha" type="matrix" values="0 0 0 0 0 0 0 0 0 0 0 0 0 0 0 0 0 0 127 0" result="hardAlpha"/>
<feOffset dx="-1" dy="-3"/>
<feGaussianBlur stdDeviation="3.5"/>
<feComposite in2="hardAlpha" operator="arithmetic" k2="-1" k3="1"/>
<feColorMatrix type="matrix" values="0 0 0 0 1 0 0 0 0 1 0 0 0 0 1 0 0 0 0.4 0"/>
<feBlend mode="normal" in2="effect3_innerShadow" result="effect4_innerShadow"/>
<feColorMatrix in="SourceAlpha" type="matrix" values="0 0 0 0 0 0 0 0 0 0 0 0 0 0 0 0 0 0 127 0" result="hardAlpha"/>
<feOffset dx="2" dy="2"/>
<feGaussianBlur stdDeviation="2"/>
<feComposite in2="hardAlpha" operator="arithmetic" k2="-1" k3="1"/>
<feColorMatrix type="matrix" values="0 0 0 0 1 0 0 0 0 0.160784 0 0 0 0 0.160784 0 0 0 1 0"/>
<feBlend mode="normal" in2="effect4_innerShadow" result="effect5_innerShadow"/>
</filter>
<filter id="filter2_ddiii" x="67.5756" y="0.617981" width="201.299" height="197.868" filterUnits="userSpaceOnUse" color-interpolation-filters="sRGB">
<feFlood flood-opacity="0" result="BackgroundImageFix"/>
<feColorMatrix in="SourceAlpha" type="matrix" values="0 0 0 0 0 0 0 0 0 0 0 0 0 0 0 0 0 0 127 0" result="hardAlpha"/>
<feMorphology radius="4" operator="erode" in="SourceAlpha" result="effect1_dropShadow"/>
<feOffset dy="18"/>
<feGaussianBlur stdDeviation="44"/>
<feColorMatrix type="matrix" values="0 0 0 0 0.0941176 0 0 0 0 0.152941 0 0 0 0 0.294118 0 0 0 0.24 0"/>
<feBlend mode="normal" in2="BackgroundImageFix" result="effect1_dropShadow"/>
<feColorMatrix in="SourceAlpha" type="matrix" values="0 0 0 0 0 0 0 0 0 0 0 0 0 0 0 0 0 0 127 0" result="hardAlpha"/>
<feMorphology radius="6" operator="erode" in="SourceAlpha" result="effect2_dropShadow"/>
<feOffset dy="8"/>
<feGaussianBlur stdDeviation="14"/>
<feColorMatrix type="matrix" values="0 0 0 0 0.0941176 0 0 0 0 0.152941 0 0 0 0 0.294118 0 0 0 0.22 0"/>
<feBlend mode="normal" in2="effect1_dropShadow" result="effect2_dropShadow"/>
<feBlend mode="normal" in="SourceGraphic" in2="effect2_dropShadow" result="shape"/>
<feColorMatrix in="SourceAlpha" type="matrix" values="0 0 0 0 0 0 0 0 0 0 0 0 0 0 0 0 0 0 127 0" result="hardAlpha"/>
<feOffset/>
<feGaussianBlur stdDeviation="1"/>
<feComposite in2="hardAlpha" operator="arithmetic" k2="-1" k3="1"/>
<feColorMatrix type="matrix" values="0 0 0 0 0.441667 0 0 0 0 0 0 0 0 0 0 0 0 0 1 0"/>
<feBlend mode="normal" in2="shape" result="effect3_innerShadow"/>
<feColorMatrix in="SourceAlpha" type="matrix" values="0 0 0 0 0 0 0 0 0 0 0 0 0 0 0 0 0 0 127 0" result="hardAlpha"/>
<feOffset dx="-1" dy="-3"/>
<feGaussianBlur stdDeviation="3.5"/>
<feComposite in2="hardAlpha" operator="arithmetic" k2="-1" k3="1"/>
<feColorMatrix type="matrix" values="0 0 0 0 1 0 0 0 0 1 0 0 0 0 1 0 0 0 0.4 0"/>
<feBlend mode="normal" in2="effect3_innerShadow" result="effect4_innerShadow"/>
<feColorMatrix in="SourceAlpha" type="matrix" values="0 0 0 0 0 0 0 0 0 0 0 0 0 0 0 0 0 0 127 0" result="hardAlpha"/>
<feOffset dx="2" dy="2"/>
<feGaussianBlur stdDeviation="2"/>
<feComposite in2="hardAlpha" operator="arithmetic" k2="-1" k3="1"/>
<feColorMatrix type="matrix" values="0 0 0 0 1 0 0 0 0 0.160784 0 0 0 0 0.160784 0 0 0 1 0"/>
<feBlend mode="normal" in2="effect4_innerShadow" result="effect5_innerShadow"/>
</filter>
<filter id="filter3_ddiii" x="0.534668" y="75.267" width="204.089" height="200.361" filterUnits="userSpaceOnUse" color-interpolation-filters="sRGB">
<feFlood flood-opacity="0" result="BackgroundImageFix"/>
<feColorMatrix in="SourceAlpha" type="matrix" values="0 0 0 0 0 0 0 0 0 0 0 0 0 0 0 0 0 0 127 0" result="hardAlpha"/>
<feMorphology radius="4" operator="erode" in="SourceAlpha" result="effect1_dropShadow"/>
<feOffset dy="18"/>
<feGaussianBlur stdDeviation="44"/>
<feColorMatrix type="matrix" values="0 0 0 0 0.0941176 0 0 0 0 0.152941 0 0 0 0 0.294118 0 0 0 0.24 0"/>
<feBlend mode="normal" in2="BackgroundImageFix" result="effect1_dropShadow"/>
<feColorMatrix in="SourceAlpha" type="matrix" values="0 0 0 0 0 0 0 0 0 0 0 0 0 0 0 0 0 0 127 0" result="hardAlpha"/>
<feMorphology radius="6" operator="erode" in="SourceAlpha" result="effect2_dropShadow"/>
<feOffset dy="8"/>
<feGaussianBlur stdDeviation="14"/>
<feColorMatrix type="matrix" values="0 0 0 0 0.0941176 0 0 0 0 0.152941 0 0 0 0 0.294118 0 0 0 0.22 0"/>
<feBlend mode="normal" in2="effect1_dropShadow" result="effect2_dropShadow"/>
<feBlend mode="normal" in="SourceGraphic" in2="effect2_dropShadow" result="shape"/>
<feColorMatrix in="SourceAlpha" type="matrix" values="0 0 0 0 0 0 0 0 0 0 0 0 0 0 0 0 0 0 127 0" result="hardAlpha"/>
<feOffset/>
<feGaussianBlur stdDeviation="1"/>
<feComposite in2="hardAlpha" operator="arithmetic" k2="-1" k3="1"/>
<feColorMatrix type="matrix" values="0 0 0 0 0.441667 0 0 0 0 0 0 0 0 0 0 0 0 0 1 0"/>
<feBlend mode="normal" in2="shape" result="effect3_innerShadow"/>
<feColorMatrix in="SourceAlpha" type="matrix" values="0 0 0 0 0 0 0 0 0 0 0 0 0 0 0 0 0 0 127 0" result="hardAlpha"/>
<feOffset dx="-1" dy="-3"/>
<feGaussianBlur stdDeviation="3.5"/>
<feComposite in2="hardAlpha" operator="arithmetic" k2="-1" k3="1"/>
<feColorMatrix type="matrix" values="0 0 0 0 1 0 0 0 0 1 0 0 0 0 1 0 0 0 0.4 0"/>
<feBlend mode="normal" in2="effect3_innerShadow" result="effect4_innerShadow"/>
<feColorMatrix in="SourceAlpha" type="matrix" values="0 0 0 0 0 0 0 0 0 0 0 0 0 0 0 0 0 0 127 0" result="hardAlpha"/>
<feOffset dx="2" dy="2"/>
<feGaussianBlur stdDeviation="2"/>
<feComposite in2="hardAlpha" operator="arithmetic" k2="-1" k3="1"/>
<feColorMatrix type="matrix" values="0 0 0 0 1 0 0 0 0 0.160784 0 0 0 0 0.160784 0 0 0 1 0"/>
<feBlend mode="normal" in2="effect4_innerShadow" result="effect5_innerShadow"/>
</filter>
<filter id="filter4_ddii" x="104.678" y="101.024" width="29.8561" height="19.2769" filterUnits="userSpaceOnUse" color-interpolation-filters="sRGB">
<feFlood flood-opacity="0" result="BackgroundImageFix"/>
<feColorMatrix in="SourceAlpha" type="matrix" values="0 0 0 0 0 0 0 0 0 0 0 0 0 0 0 0 0 0 127 0" result="hardAlpha"/>
<feOffset dy="0.696983"/>
<feGaussianBlur stdDeviation="0.929311"/>
<feColorMatrix type="matrix" values="0 0 0 0 0.520833 0 0 0 0 0.0740885 0 0 0 0 0.0455729 0 0 0 0.45 0"/>
<feBlend mode="normal" in2="BackgroundImageFix" result="effect1_dropShadow"/>
<feColorMatrix in="SourceAlpha" type="matrix" values="0 0 0 0 0 0 0 0 0 0 0 0 0 0 0 0 0 0 127 0" result="hardAlpha"/>
<feOffset dy="0.232328"/>
<feGaussianBlur stdDeviation="0.696983"/>
<feColorMatrix type="matrix" values="0 0 0 0 0.225 0 0 0 0 0.0874875 0 0 0 0 0.0440625 0 0 0 0.25 0"/>
<feBlend mode="normal" in2="effect1_dropShadow" result="effect2_dropShadow"/>
<feBlend mode="normal" in="SourceGraphic" in2="effect2_dropShadow" result="shape"/>
<feColorMatrix in="SourceAlpha" type="matrix" values="0 0 0 0 0 0 0 0 0 0 0 0 0 0 0 0 0 0 127 0" result="hardAlpha"/>
<feOffset dy="-1.39397"/>
<feGaussianBlur stdDeviation="1.39397"/>
<feComposite in2="hardAlpha" operator="arithmetic" k2="-1" k3="1"/>
<feColorMatrix type="matrix" values="0 0 0 0 0.629167 0 0 0 0 0.206786 0 0 0 0 0.0734028 0 0 0 0.11 0"/>
<feBlend mode="normal" in2="shape" result="effect3_innerShadow"/>
<feColorMatrix in="SourceAlpha" type="matrix" values="0 0 0 0 0 0 0 0 0 0 0 0 0 0 0 0 0 0 127 0" result="hardAlpha"/>
<feOffset dy="-1.44972"/>
<feGaussianBlur stdDeviation="1.44972"/>
<feComposite in2="hardAlpha" operator="arithmetic" k2="-1" k3="1"/>
<feColorMatrix type="matrix" values="0 0 0 0 0.956863 0 0 0 0 0.72549 0 0 0 0 0.639216 0 0 0 0.14 0"/>
<feBlend mode="normal" in2="effect3_innerShadow" result="effect4_innerShadow"/>
</filter>
<filter id="filter5_ddii" x="140.77" y="101.579" width="29.8518" height="19.2769" filterUnits="userSpaceOnUse" color-interpolation-filters="sRGB">
<feFlood flood-opacity="0" result="BackgroundImageFix"/>
<feColorMatrix in="SourceAlpha" type="matrix" values="0 0 0 0 0 0 0 0 0 0 0 0 0 0 0 0 0 0 127 0" result="hardAlpha"/>
<feOffset dy="0.696983"/>
<feGaussianBlur stdDeviation="0.929311"/>
<feColorMatrix type="matrix" values="0 0 0 0 0.520833 0 0 0 0 0.0740885 0 0 0 0 0.0455729 0 0 0 0.45 0"/>
<feBlend mode="normal" in2="BackgroundImageFix" result="effect1_dropShadow"/>
<feColorMatrix in="SourceAlpha" type="matrix" values="0 0 0 0 0 0 0 0 0 0 0 0 0 0 0 0 0 0 127 0" result="hardAlpha"/>
<feOffset dy="0.232328"/>
<feGaussianBlur stdDeviation="0.696983"/>
<feColorMatrix type="matrix" values="0 0 0 0 0.225 0 0 0 0 0.0874875 0 0 0 0 0.0440625 0 0 0 0.25 0"/>
<feBlend mode="normal" in2="effect1_dropShadow" result="effect2_dropShadow"/>
<feBlend mode="normal" in="SourceGraphic" in2="effect2_dropShadow" result="shape"/>
<feColorMatrix in="SourceAlpha" type="matrix" values="0 0 0 0 0 0 0 0 0 0 0 0 0 0 0 0 0 0 127 0" result="hardAlpha"/>
<feOffset dy="-1.39397"/>
<feGaussianBlur stdDeviation="1.39397"/>
<feComposite in2="hardAlpha" operator="arithmetic" k2="-1" k3="1"/>
<feColorMatrix type="matrix" values="0 0 0 0 0.629167 0 0 0 0 0.206786 0 0 0 0 0.0734028 0 0 0 0.11 0"/>
<feBlend mode="normal" in2="shape" result="effect3_innerShadow"/>
<feColorMatrix in="SourceAlpha" type="matrix" values="0 0 0 0 0 0 0 0 0 0 0 0 0 0 0 0 0 0 127 0" result="hardAlpha"/>
<feOffset dy="-1.44972"/>
<feGaussianBlur stdDeviation="1.44972"/>
<feComposite in2="hardAlpha" operator="arithmetic" k2="-1" k3="1"/>
<feColorMatrix type="matrix" values="0 0 0 0 0.956863 0 0 0 0 0.72549 0 0 0 0 0.639216 0 0 0 0.14 0"/>
<feBlend mode="normal" in2="effect3_innerShadow" result="effect4_innerShadow"/>
</filter>
<filter id="filter6_ii" x="113.453" y="128.578" width="50.8243" height="22.4697" filterUnits="userSpaceOnUse" color-interpolation-filters="sRGB">
<feFlood flood-opacity="0" result="BackgroundImageFix"/>
<feBlend mode="normal" in="SourceGraphic" in2="BackgroundImageFix" result="shape"/>
<feColorMatrix in="SourceAlpha" type="matrix" values="0 0 0 0 0 0 0 0 0 0 0 0 0 0 0 0 0 0 127 0" result="hardAlpha"/>
<feOffset dy="1"/>
<feGaussianBlur stdDeviation="1"/>
<feComposite in2="hardAlpha" operator="arithmetic" k2="-1" k3="1"/>
<feColorMatrix type="matrix" values="0 0 0 0 0 0 0 0 0 0 0 0 0 0 0 0 0 0 0.25 0"/>
<feBlend mode="normal" in2="shape" result="effect1_innerShadow"/>
<feColorMatrix in="SourceAlpha" type="matrix" values="0 0 0 0 0 0 0 0 0 0 0 0 0 0 0 0 0 0 127 0" result="hardAlpha"/>
<feOffset dy="4"/>
<feGaussianBlur stdDeviation="2"/>
<feComposite in2="hardAlpha" operator="arithmetic" k2="-1" k3="1"/>
<feColorMatrix type="matrix" values="0 0 0 0 0 0 0 0 0 0 0 0 0 0 0 0 0 0 0.15 0"/>
<feBlend mode="normal" in2="effect1_innerShadow" result="effect2_innerShadow"/>
</filter>
<radialGradient id="paint0_radial" cx="0" cy="0" r="1" gradientUnits="userSpaceOnUse" gradientTransform="translate(137.194 90.9851) rotate(90) scale(31.4328)">
<stop stop-color="#FDF3DF"/>
<stop offset="1" stop-color="#FFC533"/>
</radialGradient>
<radialGradient id="paint1_radial" cx="0" cy="0" r="1" gradientUnits="userSpaceOnUse" gradientTransform="translate(168.627 129.672) rotate(172.648) scale(25.1922)">
<stop stop-color="#FF5C28"/>
<stop offset="1" stop-color="#FF5C28" stop-opacity="0"/>
</radialGradient>
<radialGradient id="paint2_radial" cx="0" cy="0" r="1" gradientUnits="userSpaceOnUse" gradientTransform="translate(111.349 131.176) rotate(33.6901) scale(21.6979)">
<stop stop-color="#FF5C28"/>
<stop offset="1" stop-color="#FF5C28" stop-opacity="0"/>
</radialGradient>
<linearGradient id="paint3_linear" x1="179.349" y1="137.493" x2="179.349" y2="159.897" gradientUnits="userSpaceOnUse">
<stop stop-color="#FF2929"/>
<stop offset="1" stop-color="#D22626"/>
</linearGradient>
<radialGradient id="paint4_radial" cx="0" cy="0" r="1" gradientUnits="userSpaceOnUse" gradientTransform="translate(174.201 142.312) rotate(69.9231) scale(8.274 7.75072)">
<stop stop-color="#FFD6D6"/>
<stop offset="1" stop-color="#FFDADA" stop-opacity="0"/>
</radialGradient>
<radialGradient id="paint5_radial" cx="0" cy="0" r="1" gradientUnits="userSpaceOnUse" gradientTransform="translate(184.234 142.43) rotate(65.7928) scale(7.69706 7.38645)">
<stop offset="0.0178721" stop-color="#FFD6D6"/>
<stop offset="1" stop-color="#FFDADA" stop-opacity="0"/>
</radialGradient>
<linearGradient id="paint6_linear" x1="168.225" y1="66.618" x2="168.225" y2="96.486" gradientUnits="userSpaceOnUse">
<stop stop-color="#FF2929"/>
<stop offset="1" stop-color="#D22626"/>
</linearGradient>
<radialGradient id="paint7_radial" cx="0" cy="0" r="1" gradientUnits="userSpaceOnUse" gradientTransform="translate(161.366 73.0422) rotate(69.9325) scale(11.0301 10.3285)">
<stop stop-color="#FFD6D6"/>
<stop offset="1" stop-color="#FFDADA" stop-opacity="0"/>
</radialGradient>
<radialGradient id="paint8_radial" cx="0" cy="0" r="1" gradientUnits="userSpaceOnUse" gradientTransform="translate(174.735 73.1996) rotate(65.8037) scale(10.2607 9.84329)">
<stop offset="0.0178721" stop-color="#FFD6D6"/>
<stop offset="1" stop-color="#FFDADA" stop-opacity="0"/>
</radialGradient>
<linearGradient id="paint9_linear" x1="102.579" y1="141.267" x2="102.579" y2="173.628" gradientUnits="userSpaceOnUse">
<stop stop-color="#FF2929"/>
<stop offset="1" stop-color="#D22626"/>
</linearGradient>
<radialGradient id="paint10_radial" cx="0" cy="0" r="1" gradientUnits="userSpaceOnUse" gradientTransform="translate(95.1449 148.227) rotate(69.9271) scale(11.9511 11.1934)">
<stop stop-color="#FFD6D6"/>
<stop offset="1" stop-color="#FFDADA" stop-opacity="0"/>
</radialGradient>
<radialGradient id="paint11_radial" cx="0" cy="0" r="1" gradientUnits="userSpaceOnUse" gradientTransform="translate(109.634 148.398) rotate(65.7975) scale(11.1177 10.6675)">
<stop offset="0.0178721" stop-color="#FFD6D6"/>
<stop offset="1" stop-color="#FFDADA" stop-opacity="0"/>
</radialGradient>
<radialGradient id="paint12_radial" cx="0" cy="0" r="1" gradientUnits="userSpaceOnUse" gradientTransform="translate(116.281 105.613) rotate(55.1813) scale(11.856 15.3085)">
<stop stop-color="white"/>
<stop offset="1" stop-opacity="0"/>
</radialGradient>
<radialGradient id="paint13_radial" cx="0" cy="0" r="1" gradientUnits="userSpaceOnUse" gradientTransform="translate(152.371 106.167) rotate(55.1857) scale(11.8554 15.3068)">
<stop stop-color="white"/>
<stop offset="1" stop-opacity="0"/>
</radialGradient>
<radialGradient id="paint14_radial" cx="0" cy="0" r="1" gradientUnits="userSpaceOnUse" gradientTransform="translate(138.215 133.366) rotate(90) scale(12.7365 59.8264)">
<stop/>
<stop offset="1" stop-opacity="0"/>
</radialGradient>
</defs>
</svg>
